<svg width="24" height="24" viewBox="0 0 24 24" fill="none" xmlns="http://www.w3.org/2000/svg">
  <path d="M4.5 10.25H6.25V13.75H4.5C4.09 13.75 3.75 13.41 3.75 13V11C3.75 10.59 4.09 10.25 4.5 10.25Z" stroke="white" stroke-width="1.9"/>
  <path d="M6.25 9H8V15H6.25" stroke="white" stroke-width="1.9" stroke-linecap="round"/>
  <path d="M8 10H10V14H8" stroke="white" stroke-width="1.9" stroke-linecap="round"/>
  <path d="M14 10H16V14H14" stroke="white" stroke-width="1.9" stroke-linecap="round"/>
  <path d="M16 9H17.75V15H16" stroke="white" stroke-width="1.9" stroke-linecap="round"/>
  <path d="M17.75 10.25H19.5C19.91 10.25 20.25 10.59 20.25 11V13C20.25 13.41 19.91 13.75 19.5 13.75H17.75" stroke="white" stroke-width="1.9"/>
  <path d="M10 12H14" stroke="white" stroke-width="1.9" stroke-linecap="round"/>
</svg>
